<?xml version="1.0" encoding="utf-8"?>
<!-- Generator: Adobe Illustrator 22.0.1, SVG Export Plug-In . SVG Version: 6.00 Build 0)  -->
<svg version="1.1" id="Calque_1" xmlns="http://www.w3.org/2000/svg" xmlns:xlink="http://www.w3.org/1999/xlink" x="0px" y="0px"
	 viewBox="0 0 432 432" style="enable-background:new 0 0 432 432;" xml:space="preserve">
<style type="text/css">
	.st0{fill:#F15A24;}
	.st1{fill:#333333;}
	.st2{fill:#8BBE56;}
	.st3{fill:#D93832;}
	.st4{fill:#4F8CB2;}
	.st5{fill:#808183;}
	.st6{fill:#F1BA67;}
	.st7{fill:#7E7163;}
	.st8{fill:#E2796F;}
	.st9{fill:#39A7AD;}
	.st10{fill:#3984B2;}
	.st11{fill:#404041;}
	.st12{fill:#2C2E30;}
	.st13{fill:#F5B50C;}
	.st14{fill:#746052;}
	.st15{fill:#835F41;}
	.st16{fill:#C69C6D;}
	.st17{fill:#FF7B7B;}
	.st18{fill:#E0BB92;}
	.st19{fill:#FF9C9C;}
	.st20{fill:#FCDB21;}
	.st21{fill:#ECA665;}
	.st22{fill:#28663D;}
	.st23{fill:#BC9A72;}
	.st24{fill:#D5DEE3;}
	.st25{fill:#534741;}
	.st26{fill:#5E442F;}
	.st27{fill:#E3CAAF;}
	.st28{fill:#E9963E;}
	.st29{fill:#98C355;}
	.st30{fill:#FF6392;}
	.st31{fill:#4D4D4D;}
	.st32{fill:#E99748;}
	.st33{fill:#DD95AF;}
	.st34{fill:#48311A;}
	.st35{fill:#754C24;}
	.st36{fill:#23563D;}
	.st37{fill:#175134;}
	.st38{fill:#2AC2B5;}
	.st39{fill:#1A1A1A;}
	.st40{fill:#806D5D;}
	.st41{fill:#3B5072;}
	.st42{fill:#506172;}
	.st43{fill:#DA9C9F;}
	.st44{fill:#11937F;}
	.st45{fill:#9AB580;}
	.st46{fill:#9A4B5E;}
	.st47{fill:#1B1464;}
	.st48{fill:#BCAD96;}
	.st49{fill:#91DDDA;}
</style>
<path class="st12" d="M346.6,221.7L346.6,221.7c-0.8-0.7-4.9-3.7-11.7-5.7c7.7-2.2,16.9-7.4,22.7-18.7l0,0c0.5-0.9,3.5-7.3,3.9-14.7
	c0.4-6.6-1.7-13.6-2.3-14.8l0,0c-6.2-16.4-21.6-23.8-34.2-24l0,0c-1-0.1-6.1-0.2-12.8,2.2c4.9-6.3,9.3-15.9,7.3-28.5l0,0
	c-0.1-1.1-1.4-8-5.5-14.2c-3.6-5.5-9.4-10-10.5-10.6l0,0c-14.6-9.6-31.5-6.5-41.8,0.7l0,0c-0.9,0.6-5.1,3.4-9,9.3
	c0.2-8-1.8-18.4-10.8-27.4l0,0c-0.7-0.8-5.9-5.6-12.8-8.3c-6.1-2.4-13.5-2.6-14.8-2.4v0C197,65.7,185.1,78.1,181,90l0,0
	c-0.4,1-2.1,5.8-1.8,12.8c-4.5-6.6-12.3-13.8-24.8-15.8l0,0c-1-0.2-8-1.1-15.2,0.8c-6.4,1.7-12.4,5.9-13.4,6.7l0,0
	c-13.7,10.9-16,27.9-12.2,40l0,0c0.3,1,1.7,5.9,6.1,11.5c-7.5-2.7-18-4-29.4,1.8l0,0c-1,0.4-7.1,3.8-11.8,9.6
	c-4.1,5.1-6.6,12-6.8,13.3l0,0c-4.6,16.9,3.5,32,13.6,39.5l0,0c0.8,0.7,4.8,3.8,11.6,5.7c-7.7,2.2-16.9,7.4-22.7,18.7l0,0
	c-0.5,0.9-3.5,7.3-3.9,14.7c-0.4,6.6,1.7,13.6,2.3,14.8l0,0c6.2,16.4,21.6,23.8,34.2,24l0,0c1,0.1,6.1,0.2,12.8-2.2
	c-4.9,6.3-9.3,15.9-7.3,28.5l0,0c0.1,1.1,1.4,8,5.5,14.2c3.6,5.5,9.4,10,10.5,10.6l0,0c14.6,9.6,31.5,6.6,41.8-0.7l0,0
	c0.9-0.6,5.1-3.4,9-9.3c-0.2,8,1.8,18.4,10.8,27.4l0,0c0.7,0.8,5.9,5.6,12.8,8.3c6.1,2.4,13.5,2.6,14.8,2.4v0
	c17.5-0.8,29.3-13.2,33.4-25.2l0,0c0.4-1,2.1-5.8,1.8-12.8c4.5,6.6,12.3,13.8,24.8,15.8l0,0c1,0.2,8,1.1,15.2-0.8
	c6.4-1.7,12.4-5.9,13.4-6.7l0,0c13.7-10.9,16-27.9,12.2-40l0,0c-0.3-1-1.7-5.9-6.1-11.5c7.5,2.7,18,4,29.4-1.8l0,0
	c1-0.4,7.1-3.8,11.8-9.6c4.1-5.1,6.6-12,6.8-13.3l0,0C364.9,244.4,356.7,229.2,346.6,221.7z M338.9,231.1c5,0,5.6,0,12.4,11.8
	c-0.4,3.4-2.8,10.6-5.5,12.4c-0.9,0.6-10,1.6-11.8,1.6c-1.3-1.6-5.3-7.8-6.7-10.1c-0.1-0.2-0.3-0.4-0.4-0.7c-0.4-0.6-0.8-1.2-1-1.8
	c0-0.2,0.3-0.9,0.4-1.2c0.1-0.2,0.1-0.3,0.2-0.4c0.9-2.3,2.4-6,3.4-8.4c0.3-0.6,0.5-1.1,0.6-1.5c0.5-1.4,0.5-1.4,2-1.5l0.5-0.1
	c1.5-0.2,3-0.2,4.8-0.2L338.9,231.1z M309.7,263.9c-2.7,1.4-7,3.6-8.6,4.9c-2.2-1.9-5.9-5.2-7.4-7.6c-1.2-2.1-1.1-8.6-0.9-11.4
	c0.2-2.8,0.4-2.9,0.9-3.3l0.7-0.5c5-3.8,6.6-4.5,7-4.4c1.1,0.5,7.9,7.1,8.9,8.2C310,253.1,309.2,260.8,309.7,263.9z M250.7,296.7
	c0,0-0.1,0-0.2,0c2-5.4,5.2-10.3,9.5-14.1c-0.3,0.7-0.4,1.2-0.5,1.5c-0.2,0.5-0.2,0.5-0.7,0.9c-2.2,1.9-5,5.7-6.6,8.3
	C251.1,295.4,250.8,296.3,250.7,296.7z M252.3,298.3c0.2-2.4,4.2-7.6,6-9.7c1.8-2.1,2-2.1,2.6-2.1l0.8,0c6.3-0.1,8,0.2,8.2,0.5
	c0.6,1.1,2.2,10.4,2.4,11.9c-2.3,2.5-7.4,8.2-8.8,11.1c-3-0.5-7.8-1.2-9.8-1.1C253.2,305.9,252.1,301.1,252.3,298.3z M272,286.1
	c1.9-1.7,7-6,9.7-6.9c0.1,0,0.2,0,0.3,0c0.2-0.1,0.4-0.1,0.5-0.1c2.1-0.1,12.8,3.3,13.5,4.5c1.1,2.3,2.3,9.6,2.6,11.1
	c-0.2,0.1-0.6,0.4-1.1,0.7c-2.3,1.4-6.6,3.9-9.5,5.9c-0.1,0.1-0.2,0.2-0.3,0.3c-0.1,0.1-0.2,0.2-0.3,0.3c-2.2-1.1-10.5-3.5-12.7-3.8
	C274,294.9,272.9,288.4,272,286.1z M277.6,272.1c-5,0.8-9.7,2.5-14,5.2c-0.3,0.1-0.9,0.5-1.7,1.1c-2.1,1.5-5.5,4.5-8.6,8.8
	c-3.6,5-7.3,12.6-6.9,22.4c-3.4-4.9-7.9-9-13.4-11.9l-0.2-0.1c-4.5-2.3-9.3-3.6-14.4-4c-0.3-0.1-1.1-0.1-2-0.1
	c-2.6,0-7.1,0.4-12.2,2.1c-5.8,1.9-13.3,5.9-18.8,14c0.2-5.9-1.1-11.9-3.8-17.5l-0.1-0.1c-2.3-4.5-5.4-8.4-9.3-11.7
	c-0.2-0.3-0.8-0.7-1.6-1.3c-2.1-1.5-6-3.9-11.1-5.5c-5.8-1.9-14.2-3-23.4,0.3c3.6-4.7,6.1-10.3,7.2-16.4l0-0.2
	c0.8-5,0.6-10-0.6-14.9c0-0.3-0.2-1-0.5-2c-0.8-2.5-2.6-6.7-5.7-10.9c-3.6-4.9-9.7-10.8-19.2-13.5c5.7-1.7,11-4.7,15.5-9l0.1-0.1
	c3.6-3.6,6.3-7.7,8.2-12.4c0.2-0.3,0.5-1,0.8-1.9c0.8-2.5,1.8-6.9,1.8-12.2c0-6.1-1.5-14.4-7.6-22.2c5.6,2,11.6,2.6,17.8,1.8l0.2,0
	c5-0.8,9.7-2.5,14-5.2c0.3-0.1,0.9-0.5,1.7-1.1c2.1-1.5,5.5-4.5,8.6-8.8c3.6-5,7.3-12.6,6.9-22.4c3.4,4.9,7.9,9,13.4,11.9l0.2,0.1
	c4.5,2.3,9.3,3.6,14.4,4c0.3,0.1,1.1,0.1,2,0.1c2.6,0,7.1-0.4,12.2-2.1c5.8-1.9,13.3-5.9,18.8-14c-0.2,5.9,1.1,11.9,3.8,17.5
	l0.1,0.1c2.3,4.5,5.4,8.4,9.3,11.7c0.2,0.3,0.8,0.7,1.6,1.3c2.1,1.5,6,3.9,11.1,5.5c5.8,1.9,14.2,3,23.4-0.3
	c-3.6,4.7-6.1,10.3-7.2,16.4l0,0.2c-0.8,5-0.6,10,0.6,14.9c0,0.3,0.2,1,0.5,2c0.8,2.5,2.6,6.7,5.7,10.9c3.6,4.9,9.7,10.8,19.2,13.5
	c-5.7,1.7-11,4.7-15.5,9l-0.1,0.1c-3.6,3.6-6.3,7.7-8.2,12.4c-0.2,0.3-0.5,1-0.8,1.9c-0.8,2.5-1.8,6.9-1.8,12.2
	c0,6.1,1.5,14.4,7.6,22.2c-5.6-2-11.6-2.6-17.8-1.8L277.6,272.1z M197,303.9c1.6-1.8,7.8-3.7,10.6-4.3c2.7-0.6,2.9-0.5,3.4-0.2
	l0.7,0.5c5.2,3.6,6.3,4.9,6.4,5.3c-0.2,1.2-4.3,9.7-5,11c-3.3,0.7-10.8,2.3-13.7,3.8c-2.2-2.2-5.6-5.5-7.3-6.6
	C193.2,310.6,195.2,306.1,197,303.9z M196.4,301.6c4.8-3.2,10.3-5.2,16-5.8c-0.7,0.4-1,0.7-1.3,0.9c-0.4,0.3-0.4,0.3-1.1,0.4
	c-2.9,0.3-7.4,1.7-10.2,2.9c-2.2,0.9-2.9,1.5-3.2,1.8C196.5,301.7,196.5,301.7,196.4,301.6z M220.1,305.6c2.5-0.2,9.2-0.7,11.9,0.1
	c0.1,0.1,0.2,0.1,0.3,0.1c0.2,0,0.4,0.1,0.5,0.2c1.7,1.1,8.4,10.2,8.3,11.6c-0.4,2.5-3.8,9.1-4.5,10.5c-0.3,0-0.7-0.1-1.3-0.1
	c-2.7-0.3-7.6-0.7-11.2-0.8c-0.1,0-0.3,0-0.4,0c-0.1,0-0.3,0-0.4,0c-1.1-2.2-6.4-9-8.1-10.5C216.5,313.9,219.5,308,220.1,305.6z
	 M164.6,278.4c-0.5,0-0.6,0-1.1-0.3c-2.5-1.5-6.9-3-10-3.7c-2.3-0.5-3.2-0.5-3.7-0.5c0,0,0-0.1-0.1-0.1c5.8,0.2,11.4,1.8,16.4,4.7
	C165.4,278.4,165,278.4,164.6,278.4z M165.3,289.3c-0.9,0.9-9.2,5.3-10.5,6c-3.1-1.4-10.1-4.5-13.3-5c-0.5-3-1.3-7.8-2-9.6
	c2.5-1.5,6.8-4,9.5-4.7c2.3-0.5,8.5,1.6,11.1,2.7c2.6,1.1,2.6,1.3,2.8,1.9l0.3,0.8C165.3,287.3,165.5,289,165.3,289.3z M131.2,226.6
	c-1.6-1.8-2.3-2.3-2.7-2.5c0,0,0-0.1,0-0.1c4.6,3.5,8.1,8.1,10.5,13.4c-0.6-0.5-1-0.8-1.2-1c-0.4-0.3-0.4-0.3-0.7-0.9
	C135.9,232.7,133.2,228.9,131.2,226.6z M135.1,237l-0.2,0.8c-1.8,6-2.7,7.5-3,7.7c-1.2,0.2-10.5-1.1-12-1.4
	c-1.7-2.9-5.5-9.6-7.8-11.8c1.4-2.7,3.5-7,4-9c2.9,0.2,7.8,0.7,10.5,1.8c2.2,1,5.9,6.3,7.4,8.7C135.4,236.3,135.3,236.4,135.1,237z
	 M137.5,260.5c1.2-0.1,2.4-0.4,3.5-0.8c-1.5,6.1-4.7,11.7-9.1,16.1c-0.7,0.4-1.4,0.8-2.2,1.2c-0.4,0.1-1.3,0.6-2.4,1.5
	c0.4-1.2,0.8-2.5,1.1-3.7c0.3-1.1,0.6-2.3,0.8-2.5l0.1-0.1C131.3,269.8,136.5,263.6,137.5,260.5z M127.9,283.1
	c1.2-0.3,8.2-1.8,9.6-1.8c0.6,1.3,1.7,7.7,2,9.5c-1.7,1.3-6.9,7.9-8.4,11.3c-3-0.5-9.4,0.7-9.7,0.8l0,0c-1.1-1.7-2.1-7.6-2.3-8.7
	C119.9,293.1,124.8,287,127.9,283.1z M121.6,182.2c0.4-3.3,1.2-11,0.6-14.2c2.7-1.4,7-3.6,8.6-4.9c2.2,1.9,5.9,5.2,7.4,7.6
	c1.2,2.1,1.1,8.6,0.9,11.4c-0.2,2.8-0.4,2.9-0.9,3.3l-0.7,0.5c-5,3.8-6.6,4.5-7,4.4C129.4,189.9,122.7,183.3,121.6,182.2z
	 M129.5,192.2c-0.6,2.5-2.1,9-3.8,11.3c-0.1,0.1-0.2,0.1-0.2,0.2c-0.1,0.1-0.3,0.3-0.3,0.4c-1.6,1.3-12.3,4.8-13.6,4.3
	c-2.3-1.2-7.5-6.4-8.6-7.5c0.1-0.3,0.3-0.7,0.5-1.2c1.1-2.5,3-7,4.3-10.4c0-0.1,0.1-0.3,0.1-0.4c0-0.1,0.1-0.3,0.1-0.4
	c2.4-0.4,10.5-3.4,12.5-4.4C122.7,186.3,127.5,190.9,129.5,192.2z M141.2,174.7c-0.2-2.3-0.5-3.2-0.7-3.6c0,0,0.1-0.1,0.1-0.1
	c1.6,5.5,1.8,11.4,0.6,17c-0.2-0.8-0.3-1.2-0.4-1.5c-0.2-0.5-0.2-0.5,0-1.1C141.4,182.4,141.5,177.8,141.2,174.7z M181.3,135.3
	c0,0,0.1,0,0.2,0c-2,5.4-5.2,10.3-9.5,14.1c0.3-0.7,0.4-1.2,0.5-1.5c0.2-0.5,0.2-0.5,0.7-0.9c2.2-1.9,5-5.7,6.6-8.3
	C180.9,136.6,181.2,135.7,181.3,135.3z M179.7,133.7c-0.2,2.4-4.2,7.6-6,9.7c-1.8,2.1-2,2.1-2.6,2.1l-0.8,0c-6.3,0.1-8-0.2-8.2-0.5
	c-0.6-1.1-2.2-10.4-2.4-11.9c2.3-2.5,7.4-8.2,8.8-11.1c3,0.5,7.8,1.2,9.8,1.1C178.8,126.1,179.9,130.9,179.7,133.7z M160,145.9
	c-1.9,1.7-7,6-9.7,6.9c-0.1,0-0.2,0-0.3,0c-0.2,0.1-0.4,0.1-0.5,0.1c-2.1,0.1-12.8-3.3-13.5-4.5c-1.1-2.3-2.3-9.6-2.6-11.1
	c0.2-0.1,0.6-0.4,1.1-0.7c2.3-1.4,6.6-3.9,9.5-5.9c0.1-0.1,0.2-0.2,0.3-0.3c0.1-0.1,0.2-0.2,0.3-0.3c2.2,1.1,10.5,3.5,12.7,3.8
	C158,137.1,159.1,143.6,160,145.9z M235,128.1c-1.6,1.8-7.8,3.7-10.6,4.3c-2.7,0.6-2.9,0.5-3.4,0.2l-0.7-0.5
	c-5.2-3.6-6.3-4.9-6.4-5.3c0.2-1.2,4.3-9.7,5-11c3.3-0.7,10.8-2.3,13.7-3.8c2.2,2.2,5.6,5.5,7.3,6.6
	C238.8,121.4,236.8,125.9,235,128.1z M235.6,130.4c-4.8,3.2-10.3,5.2-16,5.8c0.7-0.4,1-0.7,1.3-0.9c0.4-0.3,0.4-0.3,1.1-0.4
	c2.9-0.3,7.4-1.7,10.2-2.9c2.2-0.9,2.9-1.5,3.2-1.8C235.5,130.3,235.5,130.3,235.6,130.4z M211.9,126.4c-2.5,0.2-9.2,0.7-11.9-0.1
	c-0.1-0.1-0.2-0.1-0.3-0.1c-0.2,0-0.4-0.1-0.5-0.2c-1.7-1.1-8.4-10.2-8.3-11.6c0.4-2.5,3.8-9.1,4.5-10.5c0.3,0,0.7,0.1,1.3,0.1
	c2.7,0.3,7.6,0.7,11.2,0.8c0.1,0,0.3,0,0.4,0c0.1,0,0.3,0,0.4,0c1.1,2.2,6.4,9,8.1,10.5C215.5,118.1,212.5,124,211.9,126.4z
	 M267.4,153.6c0.5,0,0.6,0,1.1,0.3c2.5,1.5,6.9,3,10,3.7c2.3,0.5,3.2,0.5,3.7,0.5c0,0,0,0.1,0.1,0.1c-5.8-0.2-11.4-1.8-16.4-4.7
	C266.6,153.6,267,153.6,267.4,153.6z M266.7,142.7c0.9-0.9,9.2-5.3,10.5-6c3.1,1.4,10.1,4.5,13.3,5c0.5,3,1.3,7.8,2,9.6
	c-2.5,1.5-6.8,4-9.5,4.7c-2.3,0.5-8.5-1.6-11.1-2.7c-2.6-1.1-2.6-1.3-2.8-1.9l-0.3-0.8C266.7,144.7,266.5,143,266.7,142.7z
	 M300.8,205.4c1.6,1.8,2.3,2.3,2.7,2.5c0,0,0,0.1,0,0.1c-4.6-3.5-8.1-8.1-10.5-13.4c0.6,0.5,1,0.8,1.2,1c0.4,0.3,0.4,0.3,0.7,0.9
	C296.1,199.3,298.8,203.1,300.8,205.4z M296.9,195l0.2-0.8c1.8-6,2.7-7.5,3-7.7c1.2-0.2,10.5,1.1,12,1.4c1.7,2.9,5.5,9.6,7.8,11.8
	c-1.4,2.7-3.5,7-4,9c-2.9-0.2-7.8-0.7-10.5-1.8c-2.2-1-5.9-6.3-7.4-8.7C296.6,195.7,296.7,195.6,296.9,195z M294.5,171.5
	c-1.2,0.1-2.4,0.4-3.5,0.8c1.5-6.1,4.7-11.7,9.1-16.1c0.7-0.4,1.4-0.8,2.2-1.2c0.4-0.1,1.3-0.6,2.4-1.5c-0.4,1.2-0.8,2.5-1.1,3.7
	c-0.3,1.1-0.6,2.3-0.8,2.5l-0.1,0.1C300.7,162.2,295.5,168.4,294.5,171.5z M304.1,148.9c-1.2,0.3-8.2,1.8-9.6,1.8
	c-0.6-1.3-1.7-7.7-2-9.5c1.7-1.3,6.9-7.9,8.4-11.3c3,0.5,9.4-0.7,9.7-0.8l0,0c1.1,1.7,2.1,7.6,2.3,8.7
	C312.1,138.9,307.2,145,304.1,148.9z M290.8,257.3c0.2,2.3,0.5,3.2,0.7,3.6c0,0-0.1,0.1-0.1,0.1c-1.6-5.5-1.8-11.4-0.6-17
	c0.2,0.8,0.3,1.2,0.4,1.5c0.2,0.5,0.2,0.5,0,1.1C290.6,249.6,290.5,254.2,290.8,257.3z M302.5,239.8c0.6-2.5,2.1-9,3.8-11.3
	c0.1-0.1,0.2-0.1,0.2-0.2c0.1-0.1,0.3-0.3,0.3-0.4c1.6-1.3,12.3-4.8,13.6-4.3c2.3,1.2,7.5,6.4,8.6,7.5c-0.1,0.3-0.3,0.7-0.5,1.2
	c-1.1,2.5-3,7-4.3,10.4c0,0.1-0.1,0.3-0.1,0.4c0,0.1-0.1,0.3-0.1,0.4c-2.4,0.4-10.5,3.4-12.5,4.4
	C309.3,245.7,304.5,241.1,302.5,239.8z M321.5,219.9c-0.9,0.7-1.9,1.5-2.1,1.6l-0.1,0c-3,0.7-10.9,2.7-13.5,4.6
	c-1.1-0.6-2.2-1.1-3.3-1.4c4.8-4,10.7-6.7,16.8-7.7c0.8,0.1,1.6,0.2,2.5,0.3c0.4,0.1,1.4,0.2,2.9,0.2
	C323.5,218.3,322.4,219.2,321.5,219.9z M330.2,215c-0.2,0-0.5-0.1-0.7-0.1c3.5-1,7.8-2.2,10-2.8C336.6,213.5,333.4,214.4,330.2,215z
	 M340.4,209.8c-1.3,0.4-8.8,2.4-13.6,3.7c-1.2-0.5-7.7-3.4-8.9-4.2c0.3-1.4,3.2-7.3,4-8.9c2.2-0.1,10.3-2.3,13.4-4.2
	c2.1,2.2,8.1,4.9,8.3,5l0,0C343.6,203.4,340.9,208.8,340.4,209.8z M356.8,191.4c0.1-0.7,0.4-2.2,0.6-6.1c0.2-5.5-0.3-7.1-0.6-7.7
	c0-0.1,0.1-0.3,0.2-0.6c0.4-0.8,0.9-2.3,1.6-4.1c1.5,6.8,1,13.9-1.5,20.4c0-0.1-0.1-0.2-0.1-0.3C356.7,192,356.7,192,356.8,191.4z
	 M354.7,178c0.2,0.3,0.7,1.5,0.6,5.9c-0.2,9-0.8,9.5-4.4,12.1l-0.1,0.1c-1.7,1.3-3.6,2.6-5.6,3.4c-0.4,0.1-0.4,0.1-0.9-0.1
	c-2.9-1.3-7.2-3.7-7.7-4.9c-0.2-0.8-0.3-11.8,0-13.1c1.2-1,6.6-5.5,9-8.4C348.4,174.3,353.7,176.9,354.7,178z M323.9,146
	c1.3-0.3,13.3-0.4,23.6,8.4c-3.4,0.8-4.6,1.4-5.2,1.7c-0.4,0.2-0.4,0.2-1-0.1c-0.4-0.2-1.1-0.5-2.1-1c-6.8-2.8-9.1-3.2-10-3.3
	c-0.4-0.1-0.5-0.1-0.6-0.2c-2-1.7-4.7-4.3-5.3-5C323.3,146.3,323.7,146,323.9,146z M319.3,160l0.4-0.3c1.1-1,2.3-2,3.8-3l0.8-0.6
	c4-3,4.6-3.3,17,2.2c1.6,3,4,10.2,2.8,13.3c-0.4,1-7.1,7.2-8.6,8.2c-1.9-0.5-8.9-3.2-11.4-4.2c-0.2-0.1-0.5-0.2-0.7-0.3
	c-0.7-0.2-1.4-0.5-1.8-0.9c-0.1-0.1-0.3-0.9-0.4-1.2c0-0.2-0.1-0.3-0.1-0.4c-0.6-2.4-1.6-6.2-2.2-8.8c-0.2-0.7-0.3-1.2-0.4-1.6
	C318.2,161,318.2,161,319.3,160z M316.7,163.1c0.6,2.6,1.7,7.5,2.7,10.9c0,0.1,0.1,0.3,0.1,0.4c0.1,0.1,0.1,0.3,0.1,0.4
	c-1.7,1.7-6.5,8.9-7.5,10.9c-3.2-0.5-9.7-1.5-12.1-1.3c-1-2.3-3.5-8.5-3.5-11.4c0-0.1,0.1-0.2,0-0.3c0-0.2,0-0.4,0-0.5
	c0.5-2,7.1-11.1,8.5-11.5c2.5-0.4,9.9,0.8,11.4,1C316.4,162.1,316.5,162.5,316.7,163.1z M307.8,148c-0.2,0.1-0.4,0.2-0.6,0.3
	c2.2-2.9,5-6.3,6.5-8.1C312.1,143.1,310.1,145.7,307.8,148z M316.8,114.6c-0.1-0.1-0.2-0.1-0.3-0.2c-0.8-0.5-0.8-0.5-1.1-1.1
	c-0.3-0.7-1-2.1-3.1-5.3c-3.1-4.6-4.5-5.5-5-5.9c0-0.1-0.1-0.3-0.1-0.6c-0.2-0.9-0.6-2.4-1.1-4.3C311.2,101.8,315,107.9,316.8,114.6
	z M305.9,103.7c0.4,0.1,1.4,0.8,4,4.5c5.2,7.4,4.9,8.1,3.6,12.4l0,0.1c-0.6,2.1-1.4,4.2-2.6,6c-0.2,0.3-0.2,0.3-0.8,0.5
	c-3.1,0.6-8,1.2-9.1,0.6c-0.6-0.6-7.2-9.3-7.6-10.6c0.4-1.5,2.2-8.3,2.4-12.1C298.6,104.4,304.4,103.4,305.9,103.7z M293.5,104.7
	c0.3,1.1-1.6,10-2.1,11.7c-1.9,0.7-9.1,2.7-11.7,3.3c-0.2,0.1-0.5,0.1-0.8,0.2c-0.7,0.2-1.4,0.4-2,0.4c-0.2,0-0.8-0.5-1-0.7
	c-0.1-0.1-0.2-0.2-0.3-0.3c-1.9-1.5-4.9-4.1-6.9-5.8c-0.5-0.4-0.9-0.8-1.3-1c-1.1-0.9-1.1-0.9-0.8-2.4l0.1-0.5
	c0.3-1.4,0.7-3,1.3-4.7l0.3-1c1.5-4.8,1.7-5.4,15-8.2C286.5,97.1,292.6,101.6,293.5,104.7z M262.1,95.9c0.8-1,10.6-8.2,24.1-7.1
	c-2.3,2.6-2.9,3.9-3.2,4.5c-0.2,0.4-0.2,0.4-0.9,0.5c-0.5,0.1-1.2,0.2-2.3,0.5c-7.2,1.7-9.2,2.7-10.1,3.2c-0.4,0.2-0.5,0.2-0.7,0.2
	c-2.6-0.3-6.3-0.7-7.2-0.9C261.9,96.5,262,96.1,262.1,95.9z M255.5,119c1.8-1.8,8.4-5.2,9.8-5.9c0.2,0.2,0.6,0.5,1,0.9
	c2,1.8,5.7,5.1,8.6,7.3c0.1,0.1,0.2,0.2,0.4,0.2c0.1,0.1,0.3,0.2,0.4,0.2c-0.4,2.4,0,11,0.3,13.3c-2.9,1.5-8.7,4.5-10.6,6.1
	c-2.2-1.3-7.9-4.8-9.6-7.1c0-0.1-0.1-0.2-0.1-0.3c-0.1-0.1-0.2-0.4-0.3-0.4C254.7,131.4,254.6,120.1,255.5,119z M252.3,116.9
	c0.4,1.1,0.8,2.3,0.8,2.5l0,0.2c-0.2,3.1-0.8,11.2,0.2,14.3c-0.9,0.8-1.7,1.8-2.4,2.7c-2.3-5.8-3-12.2-2.1-18.4
	c0.4-0.7,0.7-1.5,1-2.2c0.2-0.3,0.7-1.3,1.1-2.7C251.4,114.5,251.9,115.8,252.3,116.9z M250.3,107.1c-0.1,0.2-0.2,0.4-0.3,0.6
	c0.1-3.6,0.3-8.1,0.5-10.4C250.9,100.5,250.8,103.8,250.3,107.1z M241.5,90.1c1.9,0.7,6.2,4.9,7,5.7c-0.1,1.4-0.5,9.1-0.6,14.1
	c-0.8,1-5.6,6.3-6.7,7.2c-1.2-0.7-5.9-5.3-7.2-6.6c0.6-2.1,1-10.5,0.2-14C236.9,95.1,241.3,90.3,241.5,90.1L241.5,90.1z M238,74.7
	c-0.1,0-0.2,0-0.3,0c-1,0.1-1,0.1-1.6-0.2c-0.6-0.4-2-1.1-5.6-2.4c-5.2-1.9-6.9-1.9-7.5-1.8c-0.1-0.1-0.3-0.2-0.5-0.4
	c-0.7-0.6-1.9-1.6-3.4-2.8C225.9,67.7,232.6,70.3,238,74.7z M222.7,72.3c0.4-0.1,1.6-0.2,5.8,1.3c8.5,2.9,8.8,3.7,10.2,7.9l0,0.1
	c0.7,2,1.3,4.2,1.5,6.4c0,0.4,0,0.4-0.4,0.8c-2.1,2.3-5.7,5.7-7.1,5.8c-0.9-0.1-11.3-3.3-12.4-4.1c-0.6-1.5-3.1-8-5.2-11.2
	C217.3,77.2,221.4,72.9,222.7,72.3z M213.3,80.4c0.9,0.7,4.6,9,5.2,10.7c-1.1,1.7-5.8,7.5-7.5,9.5c-0.2,0.2-0.3,0.4-0.5,0.6
	c-0.4,0.6-0.9,1.1-1.4,1.5c-0.2,0.1-0.9,0-1.2,0c-0.2,0-0.3,0-0.4,0c-2.4-0.1-6.4-0.4-9-0.7c-0.7-0.1-1.2-0.1-1.6-0.1
	c-1.5-0.1-1.5-0.1-2.1-1.4l-0.2-0.5c-0.6-1.3-1.1-2.8-1.7-4.5l-0.3-1c-1.6-4.7-1.8-5.4,7.4-15.5C203.1,78.4,210.7,78.4,213.3,80.4z
	 M198.1,71.9c-0.3,3.5-0.1,4.8,0,5.5c0.1,0.4,0.1,0.4-0.4,1c-0.3,0.3-0.8,0.9-1.6,1.7c-4.8,5.6-5.8,7.6-6.3,8.5
	c-0.2,0.4-0.2,0.4-0.4,0.6c-2.2,1.3-5.5,3.2-6.4,3.5c-0.1-0.2-0.3-0.7-0.3-0.9C182.8,90.4,186.5,78.9,198.1,71.9z M187.1,114.5
	c0.9,0.6,2,1.3,2.2,1.5l0.1,0.1c1.6,2.7,5.9,9.5,8.6,11.4c-0.2,1.2-0.4,2.4-0.3,3.6c-5.3-3.3-9.7-8.1-12.5-13.6
	c-0.1-0.8-0.3-1.6-0.5-2.4c0-0.4-0.2-1.4-0.7-2.8C185,113.1,186.1,113.8,187.1,114.5z M179.7,107.7c0,0.2,0.1,0.5,0.1,0.7
	c-2-3-4.5-6.8-5.7-8.7C176.3,102.1,178.2,104.8,179.7,107.7z M162.6,99.1c1.9-0.6,7.9,0.3,9,0.5c0.8,1.2,5,7.7,7.8,11.8
	c-0.1,1.3-0.8,8.4-1.2,9.7c-1.4,0.1-7.9-0.8-9.7-1.1c-0.7-2-5.4-9.1-8.1-11.5C161.8,105.9,162.6,99.4,162.6,99.1L162.6,99.1z
	 M155.3,93.8l0.1,0.1c1.8,1.2,3.6,2.6,4.9,4.3c0.3,0.3,0.3,0.3,0.2,0.9c-0.3,3.1-1.3,8-2.3,8.9c-0.7,0.4-11.1,3.9-12.4,4
	c-1.3-0.9-7.2-4.6-10.7-6c0.3-3,1.1-8.8,1.9-10.1c0.2-0.3,1.2-1.1,5.5-2.4C151,90.8,151.7,91.3,155.3,93.8z M150.7,88.8
	c-0.1,0.1-0.2,0.1-0.3,0.2c-0.8,0.6-0.8,0.6-1.4,0.7c-0.7,0.1-2.3,0.3-6,1.3c-5.3,1.5-6.6,2.5-7.1,2.9c-0.1,0-0.3,0-0.6,0
	c-0.9-0.1-2.5-0.2-4.4-0.2C136.9,90.1,143.8,88.4,150.7,88.8z M122.4,114.7c2.3-2.5,8.5-6.9,11.7-6.8c1.1,0.1,9,4.6,10.5,5.6
	c0.1,2-0.3,9.4-0.5,12.1c0,0.2,0,0.5,0,0.8c0,0.7-0.1,1.5-0.3,2c-0.1,0.2-0.7,0.6-1,0.7c-0.1,0.1-0.3,0.2-0.4,0.2
	c-2.1,1.3-5.4,3.4-7.7,4.8c-0.6,0.3-1,0.6-1.4,0.9c-1.2,0.8-1.2,0.8-2.5,0.1l-0.5-0.3c-1.3-0.7-2.6-1.6-4-2.7l-0.8-0.6
	C121.4,128.6,120.9,128.2,122.4,114.7z M116.1,135c-0.7-1.1-4.5-12.6,0.7-25.1c1.8,3,2.8,4,3.3,4.5c0.3,0.3,0.3,0.3,0.2,1
	c-0.1,0.5-0.2,1.2-0.3,2.3c-0.6,7.4-0.2,9.6-0.1,10.5c0.1,0.4,0.1,0.5,0,0.7c-1,2.4-2.6,5.8-3.1,6.6
	C116.6,135.5,116.2,135.2,116.1,135z M133,150.8c1.1,0,2.4-0.1,2.7,0l0.1,0.1c2.9,1.2,10.4,4.3,13.7,4.2c0.5,1.1,1.1,2.2,1.9,3.1
	c-6.3,0.4-12.6-0.9-18.2-3.7c-0.6-0.6-1.2-1.1-1.8-1.7c-0.2-0.3-1-1-2.2-1.9C130.4,150.9,131.8,150.9,133,150.8z M123,149.7
	c0.2,0.2,0.3,0.3,0.5,0.5c-3.4-1.2-7.6-2.8-9.7-3.7C117,147.2,120.1,148.2,123,149.7z M111.7,148c1.3,0.5,8.5,3.3,13.2,5
	c0.7,1.1,4.2,7.3,4.7,8.6c-1.1,0.9-6.9,4-8.5,4.8c-1.8-1.2-9.7-4.2-13.3-4.5c-0.4-3-3.6-8.7-3.8-9l0,0
	C105.4,151.2,110.7,148.5,111.7,148z M95.1,152.8l0.1,0c2.2,0,4.4,0,6.5,0.6c0.4,0.1,0.4,0.1,0.7,0.6c1.6,2.7,3.6,7.2,3.4,8.5
	c-0.4,0.8-6.7,9.7-7.7,10.5c-1.6,0.1-8.6,0.5-12.2,1.4c-1.5-2.6-4.3-7.8-4.4-9.3c0-0.4,0.3-1.6,3-5.2
	C89.8,152.9,90.6,152.9,95.1,152.8z M88.4,151.5c0,0.1-0.1,0.2-0.1,0.3c-0.2,1-0.2,1-0.7,1.4c-0.5,0.5-1.7,1.6-4.1,4.6
	c-3.4,4.3-3.9,5.9-4,6.5c-0.1,0.1-0.3,0.2-0.5,0.3c-0.8,0.5-2.1,1.3-3.7,2.4C78,160.7,82.6,155.2,88.4,151.5z M87.6,209.2
	c-1.2-0.5-11-7.5-14.2-20.7c3.2,1.3,4.6,1.6,5.3,1.7c0.4,0.1,0.4,0.1,0.8,0.7c0.2,0.4,0.6,1.1,1.2,2c3.8,6.3,5.4,7.9,6.1,8.6
	c0.3,0.3,0.4,0.4,0.4,0.6c0.6,2.5,1.3,6.2,1.4,7.2C88.2,209.3,87.7,209.3,87.6,209.2z M93.1,200.9c-5,0-5.6,0-12.4-11.8
	c0.4-3.4,2.8-10.6,5.5-12.4c0.9-0.6,10-1.6,11.8-1.6c1.3,1.6,5.3,7.8,6.7,10.1c0.1,0.2,0.3,0.4,0.4,0.7c0.4,0.6,0.8,1.2,1,1.8
	c0,0.2-0.3,0.9-0.4,1.2c-0.1,0.2-0.1,0.3-0.2,0.4c-0.9,2.3-2.4,6-3.4,8.4c-0.3,0.6-0.5,1.1-0.6,1.5c-0.5,1.4-0.5,1.4-2,1.5l-0.5,0.1
	c-1.5,0.2-3,0.2-4.8,0.2L93.1,200.9z M110.5,212.1c0.9-0.7,1.9-1.5,2.1-1.6l0.1,0c3-0.7,10.9-2.7,13.5-4.6c1.1,0.6,2.2,1.1,3.3,1.4
	c-4.8,4-10.7,6.7-16.8,7.7c-0.8-0.1-1.6-0.2-2.5-0.3c-0.4-0.1-1.4-0.2-2.9-0.2C108.5,213.7,109.6,212.8,110.5,212.1z M101.8,217
	c0.2,0,0.5,0.1,0.7,0.1c-3.5,1-7.8,2.2-10,2.8C95.4,218.5,98.6,217.6,101.8,217z M91.6,222.2c1.3-0.4,8.8-2.4,13.6-3.7
	c1.2,0.5,7.7,3.4,8.9,4.2c-0.3,1.4-3.2,7.3-4,8.9c-2.2,0.1-10.3,2.3-13.4,4.2c-2.1-2.2-8.1-4.9-8.3-5l0,0
	C88.4,228.6,91.1,223.2,91.6,222.2z M75.2,240.6c-0.1,0.7-0.4,2.2-0.6,6.1c-0.2,5.5,0.3,7.1,0.6,7.7c0,0.1-0.1,0.3-0.2,0.6
	c-0.4,0.8-0.9,2.3-1.6,4.1c-1.5-6.8-1-13.9,1.5-20.4c0,0.1,0.1,0.2,0.1,0.3C75.3,240,75.3,240,75.2,240.6z M77.3,254
	c-0.2-0.3-0.7-1.5-0.6-5.9c0.2-9,0.8-9.5,4.4-12.1l0.1-0.1c1.7-1.3,3.6-2.6,5.6-3.4c0.4-0.1,0.4-0.1,0.9,0.1
	c2.9,1.3,7.2,3.7,7.7,4.9c0.2,0.8,0.3,11.8,0,13.1c-1.2,1-6.6,5.5-9,8.4C83.6,257.7,78.3,255.1,77.3,254z M108.1,286
	c-1.3,0.3-13.3,0.4-23.6-8.4c3.4-0.8,4.6-1.4,5.2-1.7c0.4-0.2,0.4-0.2,1,0.1c0.4,0.2,1.1,0.5,2.1,1c6.8,2.8,9.1,3.2,10,3.3
	c0.4,0.1,0.5,0.1,0.6,0.2c2,1.7,4.7,4.3,5.3,5C108.7,285.7,108.3,286,108.1,286z M112.7,272l-0.4,0.3c-1.1,1-2.3,2-3.8,3l-0.8,0.6
	c-4,3-4.6,3.3-17-2.2c-1.6-3-4-10.2-2.8-13.3c0.4-1,7.1-7.2,8.6-8.2c1.9,0.5,8.9,3.2,11.4,4.2c0.2,0.1,0.5,0.2,0.7,0.3
	c0.7,0.2,1.4,0.5,1.8,0.9c0.1,0.1,0.3,0.9,0.4,1.2c0,0.2,0.1,0.3,0.1,0.4c0.6,2.4,1.6,6.2,2.2,8.8c0.2,0.7,0.3,1.2,0.4,1.6
	C113.8,271,113.8,271,112.7,272z M115.3,268.9c-0.6-2.6-1.7-7.5-2.7-10.9c0-0.1-0.1-0.3-0.1-0.4c-0.1-0.1-0.1-0.3-0.1-0.4
	c1.7-1.7,6.5-8.9,7.5-10.9c3.2,0.5,9.7,1.5,12.1,1.3c1,2.3,3.5,8.5,3.5,11.4c0,0.1-0.1,0.2,0,0.3c0,0.2,0,0.4,0,0.5
	c-0.5,2-7.1,11.1-8.5,11.5c-2.5,0.4-9.9-0.8-11.4-1C115.6,269.9,115.5,269.5,115.3,268.9z M124.2,284c0.2-0.1,0.4-0.2,0.6-0.3
	c-2.2,2.9-5,6.3-6.5,8.1C119.9,288.9,121.9,286.3,124.2,284z M115.2,317.4c0.1,0.1,0.2,0.1,0.3,0.2c0.8,0.5,0.8,0.5,1.1,1.1
	c0.3,0.7,1,2.1,3.1,5.3c3.1,4.6,4.5,5.5,5,5.9c0,0.1,0.1,0.3,0.1,0.6c0.2,0.9,0.6,2.4,1.1,4.3C120.8,330.2,117,324.1,115.2,317.4z
	 M126.1,328.3c-0.4-0.1-1.4-0.8-4-4.5c-5.2-7.4-4.9-8.1-3.6-12.4l0-0.1c0.6-2.1,1.4-4.2,2.6-6c0.2-0.3,0.2-0.3,0.8-0.5
	c3.1-0.6,8-1.2,9.1-0.6c0.6,0.6,7.2,9.3,7.6,10.6c-0.4,1.5-2.2,8.3-2.4,12.1C133.4,327.6,127.6,328.6,126.1,328.3z M138.5,327.3
	c-0.3-1.1,1.6-10,2.1-11.7c1.9-0.7,9.1-2.7,11.7-3.3c0.2-0.1,0.5-0.1,0.8-0.2c0.7-0.2,1.4-0.4,2-0.4c0.2,0,0.8,0.5,1,0.7
	c0.1,0.1,0.2,0.2,0.3,0.3c1.9,1.5,4.9,4.1,6.9,5.8c0.5,0.4,0.9,0.8,1.3,1c1.1,0.9,1.1,0.9,0.8,2.4l-0.1,0.5c-0.3,1.4-0.7,3-1.3,4.7
	l-0.3,1c-1.5,4.8-1.7,5.4-15,8.2C145.5,334.9,139.4,330.4,138.5,327.3z M169.9,336.1c-0.8,1-10.6,8.2-24.1,7.1
	c2.3-2.6,2.9-3.9,3.2-4.5c0.2-0.4,0.2-0.4,0.9-0.5c0.5-0.1,1.2-0.2,2.3-0.5c7.2-1.7,9.2-2.7,10.1-3.2c0.4-0.2,0.5-0.2,0.7-0.2
	c2.6,0.3,6.3,0.7,7.2,0.9C170.1,335.5,170,335.9,169.9,336.1z M176.5,313c-1.8,1.8-8.4,5.2-9.8,5.9c-0.2-0.2-0.6-0.5-1-0.9
	c-2-1.8-5.7-5.1-8.6-7.3c-0.1-0.1-0.2-0.2-0.4-0.2c-0.1-0.1-0.3-0.2-0.4-0.2c0.4-2.4,0-11-0.3-13.3c2.9-1.5,8.7-4.5,10.6-6.1
	c2.2,1.3,7.9,4.8,9.6,7.1c0,0.1,0.1,0.2,0.1,0.3c0.1,0.1,0.2,0.4,0.3,0.4C177.3,300.6,177.4,311.9,176.5,313z M179.7,315.1
	c-0.4-1.1-0.8-2.3-0.8-2.5l0-0.2c0.2-3.1,0.8-11.2-0.2-14.3c0.9-0.8,1.7-1.8,2.4-2.7c2.3,5.8,3,12.2,2.1,18.4
	c-0.4,0.7-0.7,1.5-1,2.2c-0.2,0.3-0.7,1.3-1.1,2.7C180.6,317.5,180.1,316.2,179.7,315.1z M181.7,324.9c0.1-0.2,0.2-0.4,0.3-0.6
	c-0.1,3.6-0.3,8.1-0.5,10.4C181.1,331.5,181.2,328.2,181.7,324.9z M190.5,341.9c-1.9-0.7-6.2-4.9-7-5.7c0.1-1.4,0.5-9.1,0.6-14.1
	c0.8-1,5.6-6.3,6.7-7.2c1.2,0.7,5.9,5.3,7.2,6.6c-0.6,2.1-1,10.5-0.2,14C195.1,336.9,190.7,341.7,190.5,341.9L190.5,341.9z
	 M194,357.3c0.1,0,0.2,0,0.3,0c1-0.1,1-0.1,1.6,0.2c0.6,0.4,2,1.1,5.6,2.4c5.2,1.9,6.9,1.9,7.5,1.8c0.1,0.1,0.3,0.2,0.5,0.4
	c0.7,0.6,1.9,1.6,3.4,2.8C206.1,364.3,199.4,361.7,194,357.3z M209.3,359.7c-0.4,0.1-1.6,0.2-5.8-1.3c-8.5-2.9-8.8-3.7-10.2-7.9
	l0-0.1c-0.7-2-1.3-4.2-1.5-6.4c0-0.4,0-0.4,0.4-0.8c2.1-2.3,5.7-5.7,7.1-5.8c0.9,0.1,11.3,3.3,12.4,4.1c0.6,1.5,3.1,8,5.2,11.2
	C214.7,354.8,210.6,359.1,209.3,359.7z M218.7,351.6c-0.9-0.7-4.6-9-5.2-10.7c1.1-1.7,5.8-7.5,7.5-9.5c0.2-0.2,0.3-0.4,0.5-0.6
	c0.4-0.6,0.9-1.1,1.4-1.5c0.2-0.1,0.9,0,1.2,0c0.2,0,0.3,0,0.4,0c2.4,0.1,6.4,0.4,9,0.7c0.7,0.1,1.2,0.1,1.6,0.1
	c1.5,0.1,1.5,0.1,2.1,1.4l0.2,0.5c0.6,1.3,1.1,2.8,1.7,4.5l0.3,1c1.6,4.7,1.8,5.4-7.4,15.5C228.9,353.6,221.3,353.6,218.7,351.6z
	 M233.9,360.1c0.3-3.5,0.1-4.8,0-5.5c-0.1-0.4-0.1-0.4,0.4-1c0.3-0.3,0.8-0.9,1.6-1.7c4.8-5.6,5.8-7.6,6.3-8.5
	c0.2-0.4,0.2-0.4,0.4-0.6c2.2-1.3,5.5-3.2,6.4-3.5c0.1,0.2,0.3,0.7,0.3,0.9C249.2,341.6,245.5,353.1,233.9,360.1z M244.9,317.5
	c-0.9-0.6-2-1.3-2.2-1.5l-0.1-0.1c-1.6-2.7-5.9-9.5-8.6-11.4c0.2-1.2,0.4-2.4,0.3-3.6c5.3,3.3,9.7,8.1,12.5,13.6
	c0.1,0.8,0.3,1.6,0.5,2.4c0,0.4,0.2,1.4,0.7,2.8C247,318.9,245.9,318.2,244.9,317.5z M252.3,324.3c0-0.2-0.1-0.5-0.1-0.7
	c2,3,4.5,6.8,5.7,8.7C255.7,329.9,253.8,327.2,252.3,324.3z M269.4,332.9c-1.9,0.6-7.9-0.3-9-0.5c-0.8-1.2-5-7.7-7.8-11.8
	c0.1-1.3,0.8-8.4,1.2-9.7c1.4-0.1,7.9,0.8,9.7,1.1c0.7,2,5.4,9.1,8.1,11.5C270.2,326.1,269.4,332.6,269.4,332.9L269.4,332.9z
	 M276.7,338.2l-0.1-0.1c-1.8-1.2-3.6-2.6-4.9-4.3c-0.3-0.3-0.3-0.3-0.2-0.9c0.3-3.1,1.3-8,2.3-8.9c0.7-0.4,11.1-3.9,12.4-4
	c1.3,0.9,7.2,4.6,10.7,6c-0.3,3-1.1,8.8-1.9,10.1c-0.2,0.3-1.2,1.1-5.5,2.4C281,341.2,280.3,340.7,276.7,338.2z M281.3,343.2
	c0.1-0.1,0.2-0.1,0.3-0.2c0.8-0.6,0.8-0.6,1.4-0.7c0.7-0.1,2.3-0.3,6-1.3c5.3-1.5,6.6-2.5,7.1-2.9c0.1,0,0.3,0,0.6,0
	c0.9,0.1,2.5,0.2,4.4,0.2C295.1,341.9,288.2,343.6,281.3,343.2z M309.6,317.3c-2.3,2.5-8.5,6.9-11.7,6.8c-1.1-0.1-9-4.6-10.5-5.6
	c-0.1-2,0.3-9.4,0.5-12.1c0-0.2,0-0.5,0-0.8c0-0.7,0.1-1.5,0.3-2c0.1-0.2,0.7-0.6,1-0.7c0.1-0.1,0.3-0.2,0.4-0.2
	c2.1-1.3,5.4-3.4,7.7-4.8c0.6-0.3,1-0.6,1.4-0.9c1.2-0.8,1.2-0.8,2.5-0.1l0.5,0.3c1.3,0.7,2.6,1.6,4,2.7l0.8,0.6
	C310.6,303.4,311.1,303.8,309.6,317.3z M315.9,297c0.7,1.1,4.5,12.6-0.7,25.1c-1.8-3-2.8-4-3.3-4.5c-0.3-0.3-0.3-0.3-0.2-1
	c0.1-0.5,0.2-1.2,0.3-2.3c0.6-7.4,0.2-9.6,0.1-10.5c-0.1-0.4-0.1-0.5,0-0.7c1-2.4,2.6-5.8,3.1-6.6
	C315.4,296.5,315.8,296.8,315.9,297z M299,281.2c-1.1,0-2.4,0.1-2.7,0l-0.1-0.1c-2.9-1.2-10.4-4.3-13.7-4.2
	c-0.5-1.1-1.1-2.2-1.9-3.1c6.3-0.4,12.6,0.9,18.2,3.7c0.6,0.6,1.2,1.1,1.8,1.7c0.2,0.3,1,1,2.2,1.9
	C301.6,281.1,300.2,281.1,299,281.2z M309,282.3c-0.2-0.2-0.3-0.3-0.5-0.5c3.4,1.2,7.6,2.8,9.7,3.7C315,284.8,311.9,283.8,309,282.3
	z M320.3,284c-1.3-0.5-8.5-3.3-13.2-5c-0.7-1.1-4.2-7.3-4.7-8.6c1.1-0.9,6.9-4,8.5-4.8c1.8,1.2,9.7,4.2,13.3,4.5
	c0.4,3,3.6,8.7,3.8,9l0,0C326.6,280.8,321.3,283.5,320.3,284z M336.9,279.2l-0.1,0c-2.2,0-4.4,0-6.5-0.6c-0.4-0.1-0.4-0.1-0.7-0.6
	c-1.6-2.7-3.6-7.2-3.4-8.5c0.4-0.8,6.7-9.7,7.7-10.5c1.6-0.1,8.6-0.5,12.2-1.4c1.5,2.6,4.3,7.8,4.4,9.3c0,0.4-0.3,1.6-3,5.2
	C342.2,279.1,341.4,279.1,336.9,279.2z M343.6,280.5c0-0.1,0.1-0.2,0.1-0.3c0.2-1,0.2-1,0.7-1.4c0.5-0.5,1.7-1.6,4.1-4.6
	c3.4-4.3,3.9-5.9,4-6.5c0.1-0.1,0.3-0.2,0.5-0.3c0.8-0.5,2.1-1.3,3.7-2.4C354,271.3,349.4,276.8,343.6,280.5z M353.4,241.8
	c-0.4-0.1-0.4-0.1-0.8-0.7c-0.2-0.4-0.6-1.1-1.2-2c-3.8-6.3-5.4-7.9-6.1-8.6c-0.3-0.3-0.4-0.4-0.4-0.6c-0.6-2.5-1.3-6.2-1.4-7.2
	c0.2,0,0.7,0,0.9,0c1.2,0.5,11,7.5,14.2,20.7C355.4,242.1,354,241.9,353.4,241.8z"/>
</svg>
